<svg width="132" height="25" viewBox="0 0 132 25" fill="none" xmlns="http://www.w3.org/2000/svg">
<path d="M21.1039 6.83014H13.5444L10.5021 24.1618H4.94001L7.98227 6.83014H0.391998L1.25243 2.03628H21.9643L21.1039 6.83014Z" fill="#3B82F6"/>
<path d="M26.0896 8.95049C28.3021 8.95049 29.9718 9.43193 31.0985 10.3948C31.9795 11.1528 32.4199 12.2079 32.4199 13.56C32.4199 14.0107 32.3687 14.5024 32.2663 15.035L31.621 18.6304C31.2317 20.802 30.3201 22.3385 28.886 23.2399C27.4724 24.1413 25.5774 24.592 23.201 24.592C20.8245 24.592 19.0832 24.1413 17.9769 23.2399C17.1574 22.5638 16.7477 21.5497 16.7477 20.1976C16.7477 19.7264 16.7989 19.204 16.9014 18.6304L17.5467 15.035C18.2637 10.9787 21.1113 8.95049 26.0896 8.95049ZM26.9193 15.6496C26.9603 15.4447 26.9807 15.1887 26.9807 14.8814C26.9807 14.5536 26.8476 14.1951 26.5813 13.8058C26.3149 13.4166 25.8437 13.2219 25.1677 13.2219C24.5121 13.2219 23.959 13.4473 23.5083 13.898C23.0576 14.3282 22.7708 14.9121 22.6478 15.6496L22.2484 17.9543C22.2074 18.1592 22.1869 18.4255 22.1869 18.7533C22.1869 19.0606 22.3201 19.3986 22.5864 19.7674C22.8527 20.1362 23.3137 20.3205 23.9692 20.3205C24.6453 20.3205 25.2087 20.0952 25.6594 19.6445C26.1101 19.1733 26.3969 18.6099 26.5198 17.9543L26.9193 15.6496Z" fill="#3B82F6"/>
<path d="M44.1419 14.7277C44.1419 13.8468 43.7117 13.4063 42.8513 13.4063C42.0113 13.4063 41.3148 13.7239 40.7616 14.3589L39.0408 24.1618H33.8167L36.4287 9.38071H41.284L40.946 11.1938C42.1547 9.69825 43.681 8.95049 45.5248 8.95049C47.3685 8.95049 48.567 9.4012 49.1201 10.3026C49.4684 10.8762 49.6426 11.5318 49.6426 12.2693C49.6426 13.0068 49.5913 13.6931 49.4889 14.3282L48.6592 19.0606C48.6387 19.1835 48.6285 19.2962 48.6285 19.3986C48.6285 19.9518 48.9358 20.2283 49.5504 20.2283C50.0216 20.2283 50.4415 20.1259 50.8103 19.921L50.6566 23.3935C49.6938 24.1925 48.5977 24.592 47.3685 24.592C44.5824 24.592 43.1893 23.4242 43.1893 21.0888C43.1893 20.679 43.2303 20.2386 43.3122 19.7674L44.0497 15.6803C44.1112 15.3116 44.1419 14.994 44.1419 14.7277Z" fill="#3B82F6"/>
<path d="M59.189 24.592C56.8125 24.592 55.1019 24.0593 54.0571 22.994C53.2786 22.2155 52.8894 21.1707 52.8894 19.8596C52.8894 19.4294 52.9303 18.9684 53.0123 18.4767L55.1019 6.5843L60.7255 4.24883L59.8343 9.38071H68.3157L67.5475 13.7136H59.066L58.4514 17.1861C58.3695 17.5753 58.3285 17.9236 58.3285 18.2309C58.3285 19.5216 58.9431 20.1669 60.1723 20.1669C60.8279 20.1669 61.3708 19.8903 61.801 19.3372C62.2517 18.784 62.559 18.0465 62.7229 17.1246H67.824C66.9636 22.1029 64.0853 24.592 59.189 24.592Z" fill="#3B82F6"/>
<path d="M78.6664 8.95049C80.8789 8.95049 82.5486 9.43193 83.6754 10.3948C84.5563 11.1528 84.9967 12.2079 84.9967 13.56C84.9967 14.0107 84.9455 14.5024 84.8431 15.035L84.1978 18.6304C83.8085 20.802 82.8969 22.3385 81.4628 23.2399C80.0492 24.1413 78.1542 24.592 75.7778 24.592C73.4014 24.592 71.66 24.1413 70.5537 23.2399C69.7343 22.5638 69.3245 21.5497 69.3245 20.1976C69.3245 19.7264 69.3757 19.204 69.4782 18.6304L70.1235 15.035C70.8405 10.9787 73.6882 8.95049 78.6664 8.95049ZM79.4961 15.6496C79.5371 15.4447 79.5576 15.1887 79.5576 14.8814C79.5576 14.5536 79.4244 14.1951 79.1581 13.8058C78.8917 13.4166 78.4206 13.2219 77.7445 13.2219C77.0889 13.2219 76.5358 13.4473 76.0851 13.898C75.6344 14.3282 75.3476 14.9121 75.2247 15.6496L74.8252 17.9543C74.7842 18.1592 74.7637 18.4255 74.7637 18.7533C74.7637 19.0606 74.8969 19.3986 75.1632 19.7674C75.4295 20.1362 75.8905 20.3205 76.546 20.3205C77.2221 20.3205 77.7855 20.0952 78.2362 19.6445C78.6869 19.1733 78.9737 18.6099 79.0966 17.9543L79.4961 15.6496Z" fill="#3B82F6"/>
<path d="M96.7187 14.7277C96.7187 13.8468 96.2885 13.4063 95.4281 13.4063C94.5881 13.4063 93.8916 13.7239 93.3384 14.3589L91.6176 24.1618H86.3935L89.0055 9.38071H93.8609L93.5228 11.1938C94.7315 9.69825 96.2578 8.95049 98.1016 8.95049C99.9454 8.95049 101.144 9.4012 101.697 10.3026C102.045 10.8762 102.219 11.5318 102.219 12.2693C102.219 13.0068 102.168 13.6931 102.066 14.3282L101.236 19.0606C101.216 19.1835 101.205 19.2962 101.205 19.3986C101.205 19.9518 101.513 20.2283 102.127 20.2283C102.598 20.2283 103.018 20.1259 103.387 19.921L103.233 23.3935C102.271 24.1925 101.175 24.592 99.9454 24.592C97.1592 24.592 95.7661 23.4242 95.7661 21.0888C95.7661 20.679 95.8071 20.2386 95.889 19.7674L96.6265 15.6803C96.688 15.3116 96.7187 14.994 96.7187 14.7277Z" fill="#3B82F6"/>
<path d="M111.674 20.2283C112.145 20.2283 112.565 20.1259 112.934 19.921L112.78 23.3935C111.817 24.1925 110.721 24.592 109.492 24.592C107.628 24.592 106.419 24.1618 105.866 23.3013C105.497 22.7277 105.313 22.1233 105.313 21.4883C105.313 20.8327 105.353 20.2591 105.435 19.7674L107.279 9.38071H112.503L110.782 19.0606C110.762 19.1835 110.752 19.2962 110.752 19.3986C110.752 19.9518 111.059 20.2283 111.674 20.2283ZM107.894 4.37175C107.894 3.06061 108.181 2.10799 108.754 1.51387C109.348 0.899278 110.26 0.59198 111.489 0.59198C113.21 0.59198 114.071 1.34998 114.071 2.86599C114.071 4.15664 113.773 5.09902 113.179 5.69313C112.606 6.28724 111.694 6.5843 110.444 6.5843C108.744 6.5843 107.894 5.84678 107.894 4.37175Z" fill="#3B82F6"/>
<path d="M124.718 14.7277C124.718 13.8468 124.287 13.4063 123.427 13.4063C122.587 13.4063 121.891 13.7239 121.337 14.3589L119.617 24.1618H114.392L117.004 9.38071H121.86L121.522 11.1938C122.73 9.69825 124.257 8.95049 126.101 8.95049C127.944 8.95049 129.143 9.4012 129.696 10.3026C130.044 10.8762 130.218 11.5318 130.218 12.2693C130.218 13.0068 130.167 13.6931 130.065 14.3282L129.235 19.0606C129.214 19.1835 129.204 19.2962 129.204 19.3986C129.204 19.9518 129.512 20.2283 130.126 20.2283C130.597 20.2283 131.017 20.1259 131.386 19.921L131.232 23.3935C130.27 24.1925 129.174 24.592 127.944 24.592C125.158 24.592 123.765 23.4242 123.765 21.0888C123.765 20.679 123.806 20.2386 123.888 19.7674L124.625 15.6803C124.687 15.3116 124.718 14.994 124.718 14.7277Z" fill="#3B82F6"/>
</svg>
